<svg xmlns="http://www.w3.org/2000/svg" xmlns:xlink="http://www.w3.org/1999/xlink" width="98" height="98" viewBox="0 0 98 98">
  <defs>
    <radialGradient id="happy-character-winning-prize-with-flat-design-a" cx="50.092%" cy="49.997%" r="59.377%" fx="50.092%" fy="49.997%">
      <stop offset="0%" stop-color="#1CDDFF" stop-opacity=".507"/>
      <stop offset="100%" stop-color="#FFF" stop-opacity="0"/>
    </radialGradient>
    <path id="happy-character-winning-prize-with-flat-design-b" d="M0.7332,2.0516 C0.4964,1.4564 0.2748,0.855 0.066,0.2492 L0.0844,0.0698 C0.2872,0.7344 0.5058,1.3944 0.7332,2.0516 Z"/>
  </defs>
  <g fill="none" fill-rule="evenodd">
    <circle cx="49" cy="49" r="49" fill="url(#happy-character-winning-prize-with-flat-design-a)"/>
    <path fill="#2F2F2F" d="M53.1312,30.0344 C53.1312,30.0344 54.0944,28.3136 55.2978,29.051 C57.2562,30.251 56.6312,32.951 56.6312,32.951 L56.1812,31.751 C56.1812,31.751 56.7812,33.651 55.8312,34.951 L55.9312,33.701 C55.9312,33.701 55.1812,35.501 53.8312,35.701 C52.4812,35.901 52.2812,35.901 52.1312,36.701 C51.9812,37.501 53.079,38.0328 52.7312,37.976 C51.5062,37.776 51.6312,36.226 51.6312,36.226 L51.4312,37.351 C51.4312,37.351 49.8812,34.351 49.9812,32.951 C50.0812,31.551 50.7312,30.601 50.7312,30.601 L49.9312,30.901 C49.9312,30.901 52.3312,27.0844 53.1312,30.0344 Z"/>
    <path fill="#FAC1A5" d="M54.3128,34.2056 C54.9546,33.0458 55.9312,31.751 53.6478,30.551 C53.28,30.3578 52.4098,30.5074 52.0644,30.4928 C51.8236,30.4826 51.7958,30.737 51.5798,30.77 C50.0046,31.0096 49.1134,32.2418 49.1134,32.2418 C49.1134,32.2418 50.5576,34.451 46.2624,37.255 C45.7606,37.5826 49.345,43.196 49.6978,41.1178 C50.8978,34.051 53.9274,34.902 54.3128,34.2056 Z"/>
    <path fill="#EF4745" d="M50.5812,31.2428 C50.5812,31.2428 51.2812,31.051 52.0598,32.072 C52.1376,32.1744 52.0976,32.3222 51.974,32.3578 C51.6376,32.4546 51.0102,32.5794 50.4478,32.3844 C49.4334,32.0324 50.5812,31.2428 50.5812,31.2428 Z"/>
    <path fill="#982626" d="M51.974,32.3578 L51.9858,32.3508 C51.8476,32.251 51.6736,32.1886 51.4812,32.1886 C51.2202,32.1886 50.9906,32.3006 50.8444,32.4712 C51.2852,32.5216 51.7156,32.4322 51.974,32.3578 Z"/>
    <path fill="#EBF7F9" d="M51.9144 32.2344C51.9144 32.2344 51.2312 31.5678 50.4978 31.501 50.4978 31.501 51.1642 31.6928 50.4642 31.7178 50.4642 31.7178 50.2642 31.6178 50.3642 31.451 50.3642 31.4398 50.4862 31.345 50.565 31.2846 50.6098 31.2504 50.6642 31.2342 50.7202 31.2398 50.9702 31.2654 51.6762 31.4104 51.9144 32.2344zM50.1188 32.1886L50.1134 32.1944C50.1836 32.2652 50.2908 32.33 50.4478 32.3844 50.5766 32.4292 50.7088 32.4554 50.84 32.4706L50.8438 32.4636C50.8438 32.4636 50.9562 32.3636 50.8188 32.2386 50.6812 32.1136 50.2578 32.0818 50.1188 32.1886z"/>
    <path fill="#F7A5AC" d="M50.4478,32.3844 C50.7636,32.494 51.0986,32.5012 51.3924,32.4706 C51.224,32.3818 51.008,32.326 50.7688,32.326 C50.6414,32.326 50.5206,32.342 50.4094,32.3696 L50.4478,32.3844 Z"/>
    <path fill="#E9AB8F" d="M49.0206,34.4988 C49.1898,36.1396 48.265,39.7498 48.0446,40.5778 C48.0738,40.6126 48.1028,40.6474 48.1318,40.681 L49.9842,39.7122 C50.8278,36.2122 52.188,35.1936 53.167,34.7566 C52.7946,34.586 52.4126,34.4056 52.0312,34.2178 C49.7312,33.0844 49.1134,32.2418 49.1134,32.2418 C49.1134,32.2418 49.693,33.1322 49.0206,34.4988 Z"/>
    <path fill="#FAC1A5" d="M54.3312,33.8678 C54.3312,33.8678 54.8144,33.9844 54.4478,34.4844 C54.0812,34.9844 52.9478,35.001 53.2312,34.3678 C53.5144,33.7344 54.3312,33.8678 54.3312,33.8678 Z"/>
    <path fill="#982626" d="M52.8312,31.401 C52.8312,31.401 53.7812,30.951 54.0562,32.151 C54.0562,32.151 53.8188,31.351 52.8312,31.401 Z"/>
    <path fill="#2F2F2F" d="M53.2312 31.101C53.2312 31.101 54.5644 30.751 54.4312 31.9844 54.4312 31.9844 54.2188 31.051 53.2312 31.101zM51.9228 30.476C51.9228 30.476 52.6728 30.5094 52.717 30.926 52.717 30.926 52.8312 30.051 51.9228 30.476z"/>
    <path fill="#982626" d="M52.362,31.0546 C52.362,31.0546 52.4644,30.5094 51.5144,30.8428 C51.5144,30.8428 52.1228,30.7344 52.362,31.0546 Z"/>
    <path fill="#FBC9B3" d="M51.7938,31.076 L51.6362,30.9298 C51.6362,30.9298 51.7062,30.751 52.1312,30.9136 C52.5562,31.076 52.8438,30.976 52.8438,30.976 L52.0688,31.5386 L51.7938,31.076 Z"/>
    <path fill="#E9AB8F" d="M51.3938 31.1386L51.6362 30.9298C51.733 30.8464 51.8838 30.8916 51.919 31.0144L52.0688 31.5386C52.0688 31.5386 51.8688 31.2636 51.3938 31.1386zM54.2312 34.0886C54.2312 34.0886 54.3062 34.551 53.6562 34.551 53.6562 34.551 53.9688 34.4136 53.9062 34.2886 53.8438 34.1636 53.6688 34.176 53.6688 34.176 53.6688 34.176 53.9938 34.151 54.0188 34.226 54.0438 34.301 54.0312 34.401 54.0312 34.401L54.2312 34.0886z"/>
    <path fill="#2F2F2F" d="M53.4062,33.751 C53.4062,33.751 54.4062,33.626 54.5062,32.926 C54.5062,32.926 54.8812,32.8178 55.2144,32.501 C55.5246,32.2066 54.6812,34.126 54.6812,34.126 C54.6812,34.126 54.4812,33.776 53.5812,34.176 L53.4062,33.751 Z"/>
    <path fill="#F7AB1A" d="M54.9688,10.4524 C55.2216,10.9458 55.9384,10.8436 56.4208,10.4896 C56.9068,10.1326 57.014,9.561 56.9364,9.0836 C56.7312,7.8256 55.259,7.2736 53.887,7.9178 C52.1334,8.741 51.7004,10.4254 51.652,11.9212 C51.6282,12.6562 51.9464,14 50.8248,14.34 C50.1164,14.5548 49.7602,13.972 49.607,13.5026 C49.5042,13.1872 49.5184,12.7122 50.0184,12.5824 C50.5004,12.4572 50.845,13.0104 50.2418,12.9976 C50.2714,13.1716 50.301,13.3456 50.3304,13.5196 C50.3654,13.5016 50.4004,13.4836 50.4354,13.4658 C50.8268,13.265 50.4768,12.8006 50.0866,13.0006 C50.0516,13.0186 50.0166,13.0366 49.9816,13.0546 C49.733,13.1822 49.785,13.5706 50.07,13.5766 C50.54,13.5864 51.163,13.4624 51.306,12.9772 C51.4408,12.52 50.9908,12.0878 50.5262,11.9954 C49.9758,11.8858 49.3666,12.1658 49.064,12.6108 C48.6896,13.1612 48.917,13.7914 49.2176,14.2632 C49.53,14.7534 50.0044,15.0668 50.7168,14.9502 C51.3768,14.8422 51.9248,14.4368 52.1632,13.887 C52.447,13.2324 52.3086,12.513 52.3292,11.8546 C52.3574,10.9608 52.4692,9.9558 53.1602,9.177 C53.7974,8.4588 55.0404,7.8312 55.8634,8.493 C56.1408,8.716 56.2846,9.0706 56.2844,9.4118 C56.2842,9.5688 56.266,9.7532 56.1662,9.9002 C56.1194,9.9692 55.659,10.308 55.6208,10.2338 C55.4546,9.9092 54.8002,10.124 54.9688,10.4524 Z"/>
    <path fill="#F7AB1A" d="M60.6744,17.3572 L59.541,13.976 L59.179,12.8958 L58.0456,9.5148 C57.9786,9.315 57.7294,9.2184 57.4892,9.299 C57.249,9.3794 57.1088,9.6066 57.1756,9.8064 L57.189,9.8466 C56.3642,10.1232 55.6468,10.6424 55.2016,11.313 C54.9078,11.755 54.6394,12.3088 54.538,12.9442 C54.3998,13.811 53.7118,14.589 52.745,14.913 L52.6828,14.9338 C52.0504,15.1458 51.374,15.1402 50.8024,14.9182 L50.1548,14.6668 C49.875,14.5582 49.544,14.5554 49.2346,14.6592 L49.7078,16.0708 L50.07,17.151 L50.5432,18.5628 C50.8526,18.459 51.115,18.2574 51.2728,18.002 L51.638,17.4112 C51.9604,16.8894 52.4966,16.4772 53.1292,16.2652 L53.1912,16.2444 C54.1582,15.9204 55.176,16.1264 55.8086,16.7346 C56.2726,17.1806 56.8206,17.4606 57.3212,17.6364 C58.0808,17.9032 58.9662,17.8852 59.7912,17.6086 L59.8046,17.6488 C59.8716,17.8486 60.1206,17.9452 60.3608,17.8648 C60.601,17.7842 60.7414,17.557 60.6744,17.3572 Z"/>
    <path fill="#D89028" d="M54.5566,14.4806 C54.8876,14.1446 55.4512,13.3756 55.77,13.0088 C56.2014,12.5128 56.8346,12.095 57.5516,11.8142 C57.6386,11.78 59.7228,17.7012 59.8122,17.6712 L57.8164,11.718 L57.8062,11.6874 C57.7556,11.5366 57.9094,11.3488 58.1494,11.2682 C58.3896,11.1878 58.6254,11.245 58.676,11.396 L58.0456,9.5148 C57.9786,9.315 57.7294,9.2184 57.4892,9.299 C57.249,9.3794 57.1088,9.6066 57.1756,9.8064 L57.189,9.8466 C56.3642,10.1232 55.6468,10.6424 55.2016,11.313 C54.9078,11.755 54.6394,12.3088 54.538,12.9442 C54.3998,13.811 53.7118,14.589 52.745,14.913 L52.6828,14.9338 C52.0504,15.1458 51.374,15.1402 50.8024,14.9182 L50.1548,14.6668 C49.875,14.5582 49.544,14.5554 49.2346,14.6592 L49.7042,16.0598 C50.0134,15.956 50.5906,15.898 51.1534,15.813 C51.1534,15.813 54.0092,15.0372 54.5566,14.4806 Z"/>
    <path fill="#F7AB1A" d="M57.6542,18.4634 C57.5586,17.9172 58.1922,17.5668 58.7904,17.5586 C59.3936,17.5504 59.8236,17.942 60.0492,18.3698 C60.6438,19.4972 59.8018,20.825 58.3188,21.1378 C56.4232,21.5378 55.0626,20.4548 54.1222,19.2904 C53.6604,18.7184 53.1042,17.4542 52.0044,17.859 C51.3098,18.1146 51.3766,18.7944 51.5374,19.2612 C51.6454,19.5748 51.943,19.9454 52.4204,19.7474 C52.8804,19.5568 52.8218,18.9078 52.3484,19.2812 C52.2672,19.1248 52.1858,18.9682 52.1042,18.8116 C52.1432,18.8048 52.1818,18.798 52.2206,18.7914 C52.654,18.7156 52.6544,19.2972 52.2224,19.3726 C52.1838,19.3792 52.1452,19.3862 52.1064,19.3928 C51.831,19.441 51.6384,19.0996 51.8624,18.9232 C52.2314,18.6318 52.8034,18.3552 53.21,18.6564 C53.593,18.94 53.4944,19.556 53.1792,19.9098 C52.8062,20.329 52.1514,20.4726 51.6416,20.3 C51.0112,20.0866 50.8124,19.4464 50.7684,18.889 C50.7222,18.3096 50.912,17.7734 51.5504,17.4372 C52.1424,17.1256 52.8238,17.1188 53.3456,17.4138 C53.9666,17.765 54.2896,18.4224 54.703,18.9354 C55.264,19.6316 55.959,20.3662 56.9796,20.5712 C57.921,20.7602 59.2914,20.5118 59.5492,19.4876 C59.6362,19.1424 59.5372,18.773 59.3312,18.5008 C59.2366,18.3756 59.111,18.2396 58.9426,18.1824 C58.8636,18.1556 58.2922,18.1628 58.3064,18.2448 C58.3694,18.604 57.7178,18.8272 57.6542,18.4634 Z"/>
    <path fill="#D89028" fill-rule="nonzero" d="M56.6252,15.3476 L56.6374,15.3224 L56.6258,15.348 L56.6252,15.3476 Z M56.4906,16.4722 L56.5264,16.4404 C56.7542,16.5418 57.0628,16.4576 57.1524,16.3904 L57.1528,16.3906 L57.1578,16.3862 L57.1678,16.3766 C57.1844,16.358 57.1958,16.3368 57.2018,16.314 C57.4644,16.3258 57.726,16.079 57.755,16.019 L57.7642,15.995 C57.7716,15.971 57.7722,15.9478 57.7686,15.9256 C58.0258,15.839 58.1876,15.4706 58.1952,15.4178 L58.1962,15.4086 C58.1988,15.3866 58.1978,15.3532 58.171,15.309 C58.3804,15.1394 58.4336,14.6994 58.431,14.6078 L58.4312,14.6078 L58.4308,14.6042 L58.4298,14.5954 C58.4246,14.5666 58.411,14.5398 58.3918,14.5186 C58.3486,14.4694 58.2802,14.441 58.2338,14.4262 C58.1302,14.3938 58.03,14.405 57.9454,14.4568 C57.8812,14.314 57.7584,14.2212 57.5912,14.1924 C57.5584,14.1842 57.5228,14.187 57.49,14.2022 C57.441,14.2248 57.4096,14.2706 57.403,14.3208 L57.3986,14.3382 C57.3808,14.408 57.3446,14.552 57.3442,14.6962 C57.3084,14.7112 57.28,14.7392 57.2642,14.7736 L57.263,14.773 C57.2314,14.8184 57.161,14.92 57.1194,15.0422 C57.0578,15.0464 57.0036,15.0876 56.9842,15.148 C56.9958,15.112 57.0178,15.0864 57.0302,15.0778 C56.987,15.105 56.8922,15.1644 56.8164,15.2566 C56.7844,15.2458 56.7504,15.2464 56.7196,15.2568 L56.7244,15.2546 C56.673,15.2622 56.5612,15.279 56.4576,15.3348 C56.432,15.311 56.3998,15.2972 56.367,15.2942 L56.367,15.2934 C56.3116,15.2796 56.1866,15.2486 56.0616,15.262 L56.0544,15.2466 C56.0396,15.2184 56.0172,15.1966 55.9908,15.1826 L55.9806,15.1758 C55.8668,15.0986 55.7176,15.0084 55.5704,14.9936 C55.4316,14.9808 55.3048,15.053 55.2226,15.1918 C55.2046,15.222 55.1916,15.2492 55.1828,15.2744 C55.0624,15.3958 55.028,15.5582 55.0852,15.729 C55.0918,15.7484 55.0992,15.7676 55.1082,15.7872 C55.204,16.0022 55.5382,16.2672 55.719,16.2914 L55.7188,16.2948 L55.7624,16.292 L55.783,16.2872 L55.808,16.2758 C55.9848,16.4496 56.3126,16.5216 56.4508,16.4882 L56.4512,16.4898 L56.4754,16.4802 L56.4906,16.4722 Z M57.616,13.4744 C57.7138,13.4648 57.8008,13.4134 57.8638,13.3256 C57.8928,13.2852 57.9312,13.2198 57.935,13.1532 C57.9372,13.1258 57.9318,13.0978 57.9198,13.0726 L57.9154,13.0654 L57.913,13.0616 L57.9126,13.0616 C57.8592,12.9858 57.5506,12.6636 57.2822,12.6574 C57.2766,12.6086 57.259,12.5818 57.2448,12.566 L57.237,12.5576 C57.2006,12.521 56.8434,12.3238 56.5894,12.4082 C56.579,12.3886 56.5646,12.3704 56.5444,12.3558 L56.5224,12.3422 C56.463,12.3118 56.1042,12.2724 55.903,12.44 C55.8846,12.4256 55.8626,12.4154 55.8384,12.4108 L55.8246,12.4092 L55.818,12.4088 L55.8178,12.4092 C55.7058,12.4094 55.4078,12.5286 55.288,12.7464 L55.2404,12.7426 L55.2234,12.7454 L55.1984,12.7524 L55.199,12.7538 C55.0682,12.8106 54.8498,13.066 54.8138,13.3108 L54.7874,13.3168 L54.7678,13.3254 L54.7314,13.3496 L54.7336,13.352 C54.6042,13.4802 54.4968,13.8932 54.55,14.1216 C54.5546,14.1428 54.5604,14.163 54.5668,14.1826 C54.6242,14.3534 54.7488,14.462 54.9188,14.4868 C54.9408,14.5014 54.968,14.5154 55.0006,14.5288 C55.15,14.5898 55.2946,14.571 55.398,14.4764 C55.5058,14.3768 55.5706,14.2148 55.6148,14.0846 L55.619,14.073 C55.6314,14.0458 55.6364,14.0148 55.631,13.9834 L55.6274,13.967 C55.7328,13.9038 55.8138,13.8052 55.8568,13.7522 C55.8786,13.7304 55.894,13.7022 55.8994,13.6702 C56.013,13.6526 56.112,13.5998 56.1656,13.5708 C56.1924,13.5598 56.216,13.5412 56.233,13.5164 C56.346,13.5432 56.4566,13.5348 56.517,13.5296 C56.5472,13.5302 56.5778,13.5218 56.604,13.5048 C56.7088,13.5756 56.8258,13.6148 56.8902,13.636 C56.9216,13.6504 56.9576,13.654 56.992,13.6454 C57.0792,13.7604 57.195,13.8532 57.2512,13.8982 L57.265,13.9094 C57.3006,13.9456 57.3534,13.963 57.406,13.9516 C57.4414,13.944 57.4712,13.9246 57.4926,13.8988 C57.6084,13.7762 57.651,13.6276 57.616,13.4744 Z"/>
    <path fill="#FCB126" d="M55.977,12.9702 C55.9808,12.9706 55.8414,12.7568 55.964,12.5964 C56.0912,12.4256 56.4564,12.4704 56.4538,12.4792 C56.2522,12.6072 56.0922,12.7784 55.977,12.9702 Z"/>
    <path fill="#FEC14C" d="M56.3846 12.8306C56.2494 12.9384 55.9786 12.9634 55.977 12.9702 56.0922 12.7784 56.2522 12.6072 56.4538 12.4792 56.4578 12.481 56.5234 12.7164 56.3846 12.8306zM55.9882 13.005C55.9852 13.0072 56.0256 13.2444 56.1712 13.33 56.311 13.4118 56.516 13.372 56.5204 13.3768 56.3734 13.223 56.1928 13.093 55.9882 13.005z"/>
    <path fill="#FCB126" d="M56.4068 13.018C56.2506 12.8874 55.9824 12.999 55.9882 13.005 56.1928 13.093 56.3734 13.223 56.5204 13.3768 56.5166 13.378 56.555 13.1418 56.4068 13.018zM56.5122 12.9122C56.5162 12.9144 56.4326 12.6668 56.5992 12.5712 56.7722 12.467 57.1338 12.6588 57.1292 12.6666 56.8874 12.6954 56.6792 12.7854 56.5122 12.9122z"/>
    <path fill="#FEC14C" d="M56.963 12.9516C56.795 12.9912 56.5152 12.9068 56.5122 12.9122 56.6792 12.7854 56.8874 12.6954 57.1292 12.6666 57.133 12.6702 57.1364 12.908 56.963 12.9516zM56.5142 12.9482C56.5106 12.949 56.4878 13.178 56.6118 13.3126 56.73 13.4406 56.9508 13.4904 56.9542 13.4972 56.845 13.2974 56.6962 13.1078 56.5142 12.9482z"/>
    <path fill="#FCB126" d="M56.935 13.1286C56.81 12.9458 56.5096 12.9402 56.5142 12.9482 56.6962 13.1078 56.845 13.2974 56.9542 13.4972 56.9502 13.4966 57.0534 13.3014 56.935 13.1286zM57.0716 13.0786C57.0754 13.0824 57.0562 12.8248 57.2542 12.8114 57.4604 12.7914 57.789 13.1348 57.7828 13.1416 57.519 13.049 57.2784 13.0366 57.0716 13.0786z"/>
    <path fill="#FEC14C" d="M57.5304 13.317C57.342 13.2706 57.0762 13.0742 57.0716 13.0786 57.2784 13.0366 57.519 13.049 57.7828 13.1416 57.7862 13.1468 57.7252 13.3614 57.5304 13.317zM57.0642 13.1116C57.0604 13.1108 56.9746 13.3052 57.0658 13.479 57.1528 13.6436 57.3716 13.7934 57.374 13.8022 57.3122 13.5692 57.2084 13.3318 57.0642 13.1116z"/>
    <path fill="#FCB126" d="M57.4532 13.4622C57.37 13.2372 57.0612 13.1014 57.0642 13.1116 57.2084 13.3318 57.3122 13.5692 57.374 13.8022 57.3702 13.8002 57.5314 13.6744 57.4532 13.4622zM54.9626 14.3382C54.9648 14.3344 54.7572 14.3462 54.699 14.088 54.6358 13.8152 54.8296 13.4514 54.8344 13.4626 54.8326 13.7654 54.8788 14.0632 54.9626 14.3382z"/>
    <path fill="#FEC14C" d="M55.045 13.7786C55.058 13.9952 54.9578 14.3288 54.9626 14.3382 54.8788 14.0632 54.8326 13.7654 54.8344 13.4626 54.8374 13.46 55.0282 13.5506 55.045 13.7786zM54.9916 14.3496C54.992 14.3554 55.1728 14.475 55.2944 14.3642 55.4108 14.2566 55.4752 14.0088 55.4802 14.0084 55.3096 14.0594 55.1392 14.1682 54.9916 14.3496z"/>
    <path fill="#FCB126" d="M55.1834 13.8836C55.0234 13.9588 54.984 14.349 54.9916 14.3496 55.1392 14.1682 55.3096 14.0594 55.4802 14.0084 55.4792 14.0134 55.3342 13.8092 55.1834 13.8836zM55.1576 13.698C55.1608 13.6956 54.9542 13.613 54.962 13.3722 54.9682 13.118 55.2506 12.8848 55.2526 12.8954 55.174 13.1592 55.1444 13.4332 55.1576 13.698z"/>
    <path fill="#FEC14C" d="M55.3792 13.2594C55.3374 13.455 55.1552 13.6894 55.1576 13.698 55.1444 13.4332 55.174 13.1592 55.2526 12.8954 55.2562 12.894 55.4208 13.054 55.3792 13.2594zM55.1832 13.7204C55.182 13.725 55.3294 13.9058 55.4766 13.8678 55.6176 13.831 55.7438 13.6428 55.7488 13.644 55.5682 13.6166 55.3734 13.637 55.1832 13.7204z"/>
    <path fill="#FCB126" d="M55.4888 13.4096C55.3126 13.4088 55.1758 13.718 55.1832 13.7204 55.3734 13.637 55.5682 13.6166 55.7488 13.644 55.7466 13.6478 55.6558 13.409 55.4888 13.4096zM55.5106 13.237C55.5142 13.236 55.3318 13.0776 55.401 12.8692 55.4716 12.6488 55.811 12.5518 55.8102 12.5616 55.664 12.7674 55.5648 12.9996 55.5106 13.237z"/>
    <path fill="#FEC14C" d="M55.8412 12.9384C55.749 13.098 55.5104 13.2292 55.5105999 13.237 55.5648 12.9996 55.664 12.7674 55.8102 12.5616 55.8142 12.5618 55.9354 12.7706 55.8412 12.9384zM55.53 13.2672C55.5278 13.2708 55.6266 13.4912 55.7808 13.519 55.929 13.5456 56.1022 13.4266 56.107 13.4296 55.9354 13.3336 55.7382 13.274 55.53 13.2672z"/>
    <path fill="#FCB126" d="M55.9108 13.1164C55.7366 13.0466 55.5232 13.2632 55.53 13.2672 55.7382 13.274 55.9354 13.3336 56.107 13.4296 56.104 13.4322 56.076 13.182 55.9108 13.1164zM56.9412 15.8468C56.9442 15.844 56.9618 16.0988 57.1562 16.1528 57.3606 16.2124 57.625 15.9564 57.6176 15.951 57.3794 15.9706 57.1488 15.9302 56.9412 15.8468z"/>
    <path fill="#FEC14C" d="M57.3506 15.7124C57.1778 15.708 56.9464 15.8512 56.9412 15.8468 57.1488 15.9302 57.3794 15.9706 57.6176 15.951 57.6198 15.9472 57.5302 15.7198 57.3506 15.7124zM56.9292 15.8122C56.9254 15.8122 56.8148 15.5986 56.8794 15.4424 56.9416 15.293 57.1292 15.2012 57.1296 15.1948 57.1052 15.406 57.0394 15.6186 56.9292 15.8122z"/>
    <path fill="#FCB126" d="M57.2552 15.5496C57.2094 15.748 56.9284 15.8204 56.9292 15.8122 57.0394 15.6186 57.1052 15.406 57.1296 15.1948 57.1262 15.196 57.299 15.3614 57.2552 15.5496zM57.4032 15.5704C57.405 15.5662 57.4876 15.814 57.6782 15.79 57.8792 15.7688 58.052 15.398 58.0436 15.3946 57.8332 15.5174 57.613 15.5708 57.4032 15.5704z"/>
    <path fill="#FEC14C" d="M57.7392 15.2672C57.5814 15.337 57.409 15.573 57.4032 15.5704 57.613 15.5708 57.8332 15.5174 58.0436 15.3946 58.0446 15.3894 57.904 15.1976 57.7392 15.2672zM57.3834 15.5404C57.3798 15.542 57.2236 15.373 57.2414 15.191 57.2586 15.0174 57.4046 14.8448 57.4034 14.8372 57.4368 15.0624 57.4324 15.3034 57.3834 15.5404z"/>
    <path fill="#FCB126" d="M57.6102 15.1428C57.6206 15.3642 57.3844 15.5496 57.3834 15.5404 57.4324 15.3034 57.4368 15.0624 57.4034 14.8372 57.4006 14.84 57.6006 14.9336 57.6102 15.1428zM57.7496 15.1004C57.7502 15.0952 57.89 15.3122 58.056 15.2036 58.2326 15.0954 58.2878 14.6232 58.279 14.6214 58.1242 14.8544 57.9396 15.0094 57.7496 15.1004z"/>
    <path fill="#FEC14C" d="M57.9718 14.6336C57.8494 14.7842 57.7556 15.1014 57.7496 15.1004024 57.9396 15.0094 58.1242 14.8544 58.279 14.6214 58.2784 14.6154 58.1006 14.481 57.9718 14.6336zM57.7236 15.0786C57.7208 15.0816 57.5354 14.9782 57.5034 14.7844 57.4736 14.6008 57.558 14.3492 57.5544 14.3408 57.6458 14.564 57.7058 14.816 57.7236 15.0786z"/>
    <path fill="#FCB126" d="M57.8226 14.5644C57.892 14.7942 57.7274 15.0886 57.7236 15.0786 57.7058 14.816 57.6458 14.564 57.5544 14.3408 57.5526 14.3448 57.7572 14.3478 57.8226 14.5644zM55.3072 15.3664C55.3114 15.368 55.1384 15.4838 55.2478 15.725 55.3618 15.9808 55.7358 16.1542 55.7326 16.1424 55.549 15.902 55.406 15.6364 55.3072 15.3664z"/>
    <path fill="#FEC14C" d="M55.7104 15.7634C55.5902 15.5826 55.3092 15.3768 55.3072 15.3664 55.406 15.6364 55.5488 15.902 55.7326 16.1424 55.7368 16.1428 55.8344 15.9554 55.7104 15.7634zM55.3236 15.34C55.3204 15.335 55.3926 15.1306 55.5562 15.1458 55.714 15.1616 55.9148 15.3204 55.9192 15.3176 55.7524 15.3798 55.5506 15.3956 55.3236 15.34z"/>
    <path fill="#FCB126" d="M55.7574 15.596C55.5846 15.6326 55.318 15.345 55.3236 15.34 55.5506 15.3956 55.7524 15.3798 55.9192 15.3176 55.9154 15.3142 55.9226 15.5646 55.7574 15.596zM55.8488 15.7598C55.8528 15.7598 55.7376 15.9502 55.8888 16.1378 56.0472 16.3368 56.413 16.3526 56.4082 16.343 56.1868 16.1798 55.9976 15.979 55.8488 15.7598z"/>
    <path fill="#FEC14C" d="M56.29 15.976C56.1386 15.8454 55.8522 15.7682 55.8488 15.7598 55.9976 15.979 56.1868 16.1798 56.4082 16.343 56.4122 16.342 56.4466 16.115 56.29 15.976zM55.8556 15.7266C55.852 15.7234 55.8606 15.4904 56.0008 15.432 56.1358 15.3764 56.3498 15.4506 56.3532 15.4464 56.2254 15.5772 56.0578 15.6784 55.8556 15.7266z"/>
    <path fill="#FCB126" d="M56.287 15.7902C56.1466 15.8972 55.8512 15.7328 55.8556 15.7266 56.0578 15.6784 56.2254 15.5772 56.3532 15.4464 56.349 15.4448 56.4206 15.6902 56.287 15.7902zM56.4082 15.915C56.412 15.9136 56.3618 16.1498 56.5426 16.2746 56.7316 16.4078 57.061 16.2806 57.0544 16.2734 56.8138 16.197 56.5946 16.0716 56.4082 15.915z"/>
    <path fill="#FEC14C" d="M56.8522 15.9538C56.6824 15.8822 56.4126 15.9212 56.4082 15.915 56.5946 16.0716 56.8138 16.197 57.0544 16.2734 57.0576 16.2708 57.0284 16.031 56.8522 15.9538zM56.4054 15.879C56.4016 15.8776 56.3476 15.642 56.454 15.527 56.556 15.4164 56.766 15.407 56.7682 15.4016 56.6888 15.5818 56.5678 15.7482 56.4054 15.879z"/>
    <path fill="#FCB126" d="M56.8002,15.77 C56.7034,15.9306 56.4026,15.8864 56.4054,15.879 C56.5678,15.7482 56.6888,15.5818 56.7682,15.4016 C56.764,15.4016 56.8926,15.618 56.8002,15.77 Z"/>
    <polygon fill="#8D6D5C" points="50.134 20.827 47.543 13.098 48.825 12.669 51.416 20.398 50.134 20.827"/>
    <polygon fill="#8D6D5C" points="47.82 11.93 51.059 21.593 48.223 22.544 44.983 12.881 47.82 11.93"/>
    <polygon fill="#FEC14C" points="47.831 13.716 49.991 20.161 48.446 20.679 46.285 14.235"/>
    <path fill="#00AFA6" d="M58.392,45.3174 C57.68,45.1642 57.1918,44.773 56.8628,44.3568 L55.5644,46.1844 L54.3644,41.1178 C54.0072,39.6884 52.4446,38.556 50.9356,37.7694 C47.5562,38.776 47.6678,35.7036 47.7312,35.101 C47.0756,31.1484 49.972,27.7866 52.504,24.6246 L49.6642,23.651 C38.884,33.4914 37.8876,49.8444 37.8876,49.8444 L50.9628,51.7842 C48.9312,49.3512 51.2312,48.0178 50.0672,47.8824 C49.8206,47.8536 50.4202,47.3734 50.4642,47.151 C50.5064,46.9404 50.2552,46.767 50.3154,46.5794 C50.795,45.0832 51.7644,44.3178 51.7644,44.3178 C51.8396,50.639 55.8312,52.0512 55.8312,52.0512 L58.392,45.3174 Z"/>
    <path fill="#00B5B0" fill-rule="nonzero" d="M46.425,45.8268 C46.2974,45.7532 46.1494,45.771 46.094,45.8666 C46.0388,45.9624 46.0974,46.0996 46.225,46.1732 C46.3526,46.2468 46.5006,46.229 46.556,46.1334 C46.6112,46.0376 46.5526,45.9004 46.425,45.8268 Z M47.6514,44.5022 C47.5488,44.543 47.5098,44.687 47.5642,44.824 C47.6186,44.9608 47.7458,45.0386 47.8486,44.9978 C47.9512,44.957 47.9902,44.813 47.9358,44.676 C47.8814,44.5392 47.7542,44.4614 47.6514,44.5022 Z M47.8458,42.8916 C47.6986,42.8916 47.5792,42.9812 47.5792,43.0916 C47.5792,43.2022 47.6986,43.2916 47.8458,43.2916 C47.9932,43.2916 48.1126,43.2022 48.1126,43.0916 C48.1126,42.9812 47.9932,42.8916 47.8458,42.8916 Z M47.9758,41.145 C48.0082,41.0394 47.9204,40.9188 47.7796,40.8754 C47.6388,40.8322 47.4984,40.8828 47.466,40.9884 C47.4334,41.094 47.5212,41.2146 47.6622,41.2578 C47.803,41.301 47.9432,41.2506 47.9758,41.145 Z M48.592,39.4754 C48.4512,39.4322 48.3108,39.4828 48.2784,39.5884 C48.246,39.694 48.3338,39.8146 48.4746,39.8578 C48.6154,39.901 48.7558,39.8506 48.7882,39.745 C48.8208,39.6394 48.7328,39.5188 48.592,39.4754 Z"/>
    <path fill="#00AC9A" d="M46.2742 47.747L46.2258 47.553C46.65 47.4468 46.676 46.5458 46.6502 46.2076L46.6474 46.1694 47.1858 45.4694 47.2084 45.459C47.2202 45.4536 48.4044 44.9102 48.6946 44.7168 48.7606 44.6406 48.576 44.1256 48.4412 43.7498 48.2102 43.1054 47.9226 42.3038 47.95 41.6458 47.9942 40.5888 48.7308 39.9848 48.9732 39.814L48.6636 39.1432 48.7658 39.106C48.7712 39.1042 49.3034 38.9092 49.5376 38.7218 49.5712 38.695 49.5758 38.6718 49.5756 38.653 49.575 38.5476 49.4156 38.3892 49.3384 38.329L49.4614 38.171C49.4934 38.196 49.774 38.4208 49.7756 38.6514 49.7762 38.74 49.7372 38.8184 49.6626 38.8782 49.4672 39.0344 49.1104 39.186 48.9356 39.2552L49.2284 39.8894 49.1516 39.9356C49.142 39.9414 48.197 40.5248 48.15 41.6542 48.1242 42.273 48.4042 43.0544 48.6294 43.6822 48.8672 44.3458 49.011 44.7462 48.8054 44.8832 48.5216 45.0724 47.4858 45.5516 47.3142 45.6306L46.8522 46.2312C46.8644 46.4612 46.8926 47.5924 46.2742 47.747zM57.1312 45.251L54.5312 50.1512C51.8312 46.501 51.9812 43.051 51.9812 43.051 50.7812 48.901 55.7312 51.8012 55.7312 51.8012L57.8812 45.901 57.1312 45.251zM38.8978 49.3844C38.9646 50.1844 39.7646 49.051 39.7646 49.051 39.7646 49.051 39.8978 45.7844 39.8312 45.3844 39.7646 44.9844 38.8978 49.3844 38.8978 49.3844z"/>
    <path fill="#00AC9A" d="M49.8978,47.7844 C49.8182,47.0682 36.2312,40.551 50.1978,27.4844 C50.1978,27.4844 46.9734,28.522 47.0312,27.751 C47.1312,26.4178 47.7878,25.532 47.7878,25.532 C45.523,28.0188 41.137,35.15 42.3812,41.101 C43.7646,47.7178 47.7978,47.8178 47.7978,47.8178 C47.7978,47.8178 44.6978,46.7844 44.2312,43.1178 C44.2312,43.1178 45.5646,46.3178 49.8978,47.7844 Z"/>
    <path fill="#00AC9A" d="M48.6562 38.701C48.8554 38.7686 47.9934 38.0136 47.8812 37.626 47.7832 37.2874 47.85 37.0024 47.9354 36.807 47.7314 36.2986 47.7028 35.739 47.7136 35.379 47.2376 35.9032 45.7312 37.6776 45.7312 39.151 45.7312 39.151 46.6062 36.676 47.5062 36.476 47.5062 36.476 47.1062 38.176 48.6562 38.701zM51.3812 43.051C49.8812 45.151 47.6312 43.651 47.6312 43.651L50.0812 46.551C50.0812 46.551 50.7312 44.601 51.7312 43.701L52.4812 41.701C52.4812 41.701 51.6956 42.611 51.3812 43.051z"/>
    <polygon fill="#00AC9A" points="54.031 46.401 55.431 45.751 53.531 46.201 53.931 48.051"/>
    <path fill="#00AC9A" d="M49.4562,37.676 L49.5812,37.426 L50.2562,37.126 L51.0938,37.4386 L51.6312,38.2386 C51.6312,38.2386 50.1188,38.276 49.7062,38.076 C49.2938,37.876 49.4562,37.676 49.4562,37.676 Z"/>
    <polygon fill="#00B5B0" points="49.031 37.818 50.164 37.218 50.581 38.801 52.056 38.351 51.981 37.201 50.198 36.984"/>
    <path fill="#F47728" d="M49.8562,37.801 C49.8562,37.801 53.1562,41.676 56.8812,39.426 C56.8812,39.426 55.3562,41.451 53.5812,41.076 C51.8062,40.701 49.9812,38.976 49.7062,38.026 L49.8562,37.801 Z"/>
    <path fill="#D15027" d="M49.4644,37.5178 C49.4644,37.5178 51.9312,44.9844 58.5312,38.9178 C58.5312,38.9178 58.9952,38.2066 58.9102,36.099 C58.9054,35.9868 58.7836,35.9194 58.6872,35.977 L56.6644,37.1844 C56.6644,37.1844 55.8276,41.8192 52.5978,40.5844 C50.3312,39.7178 49.4644,37.5178 49.4644,37.5178 Z"/>
    <path fill="#D15027" d="M48.6812,37.5678 C48.6812,37.5678 49.2812,37.101 49.6144,37.301 C49.9478,37.501 50.1978,37.8844 50.1978,37.8844 L49.7978,38.2678 C49.7978,38.2678 49.0978,38.2344 48.6812,37.5678 Z"/>
    <path fill="#F47728" d="M48.3646,36.6178 C48.3646,36.6178 48.3646,37.2844 49.0312,37.6678 C49.0312,37.6678 49.5478,37.951 49.2644,38.001 C48.9812,38.051 48.5312,37.7178 48.3312,37.1844 C48.1312,36.651 48.3646,36.6178 48.3646,36.6178 Z"/>
    <path fill="#00B5B0" d="M48.6478,37.701 L49.2644,36.5678 L47.9312,34.951 L47.7312,35.051 C47.7312,35.051 47.5478,37.1678 48.6478,37.701 Z"/>
    <path fill="#FAC1A5" d="M49.6642 23.651L52.504 24.6246 52.5034 24.6252C53.6726 23.1648 54.7756 22.0034 55.4368 21.339L56.6562 21.151 57.1228 20.6094 57.4644 20.6178C57.4644 20.6178 57.6692 20.4568 57.6228 20.3178 57.4728 19.8678 57.1664 20.0296 57.0478 19.7928 56.826 19.349 56.5816 18.8524 56.4978 18.6512 56.368 18.3394 56.3762 17.8988 55.9312 17.9512 53.3812 18.2512 54.4312 19.951 53.8036 20.5354 52.0796 21.5874 50.5434 22.798 49.1706 24.1128 49.3328 23.9574 49.4974 23.8034 49.6642 23.651zM59.2812 40.251L56.5312 40.251 55.8312 41.151C55.8312 41.151 55.8812 41.701 56.3312 41.801 56.5332 41.846 56.644 41.7094 56.7054 41.5454 56.7946 42.157 57.4758 42.9274 57.7048 43.1714L56.8628 44.3568C57.1918 44.773 57.68 45.1642 58.392 45.3174L59.1312 43.3736C59.6312 42.1962 59.2812 40.251 59.2812 40.251z"/>
    <path fill="#2F2F2F" d="M37.8312,48.9844 C37.8312,48.9844 41.6312,45.251 50.8182,48.623 L50.4312,49.6512 C50.4312,49.6512 59.1678,53.6604 61.3986,60.512 L49.0482,65.5256 L50.2166,69.1144 C50.2166,69.1144 49.7234,69.8164 48.7542,68.7788 C47.7848,67.7412 46.0756,63.8774 46.0756,63.8774 L55.4992,58.4634 C55.4992,58.4634 50.5254,53.9936 45.0512,55.1896 C45.0512,55.1896 39.1842,64.0462 41.5442,75.7272 C41.5442,75.7272 41.7758,81.4254 40.15,81.1428 C38.5246,80.8602 39.4824,75.767 39.4824,75.767 C39.4824,75.767 34.3052,64.4764 37.8312,48.9844 Z"/>
    <path fill="#00B5B0" d="M50.2978 22.5178C50.2978 22.5178 51.8312 20.651 53.2978 23.9844L52.0312 25.851C52.0312 25.851 50.6312 23.5178 48.5646 24.1844L50.2978 22.5178zM56.5714 44.0844C56.5714 44.0844 57.6576 45.3178 58.8644 45.1844L57.8386 47.9844C57.8386 47.9844 56.0886 48.0178 55.3644 45.4844L56.5714 44.0844z"/>
    <path fill="#C8D2D2" d="M44.666,84.0492 C44.2774,82.921 43.9332,81.777 43.6172,80.626 C43.1344,78.8552 42.7488,77.0588 42.4326,75.2506 L42.2228,73.8894 L42.0598,72.522 C41.999,72.0668 41.9658,71.6088 41.9324,71.151 C41.9022,70.6928 41.8504,70.2362 41.8458,69.7766 C41.7624,67.9414 41.8444,66.102 42.0594,64.2818 L41.9764,65.654 C41.9654,65.8824 41.9396,66.1102 41.941,66.3392 L41.9388,67.026 L41.9328,67.7122 C41.9306,67.9408 41.9252,68.1696 41.9402,68.398 L41.9996,69.769 C42.124,71.5934 42.3068,73.4158 42.6296,75.2176 C42.9284,77.0224 43.3156,78.8126 43.7652,80.587 C43.9916,81.4738 44.2324,82.3572 44.496,83.2344 C44.557,83.4468 44.62,83.6584 44.6844,83.8698 L44.666,84.0492 Z"/>
    <g transform="translate(44.6 83.8)">
      <mask id="happy-character-winning-prize-with-flat-design-c" fill="#fff">
        <use xlink:href="#happy-character-winning-prize-with-flat-design-b"/>
      </mask>
      <rect width="1" height="1.982" x=".066" y=".07" fill="none" mask="url(#happy-character-winning-prize-with-flat-design-c)"/>
    </g>
    <path fill="#C8D2D2" d="M45.9046,82.2828 C45.9034,82.279 45.858,82.1952 45.4434,81.153 C45.2444,80.653 45.0574,80.147 45.0562,80.1438 C44.7458,79.264 44.5898,78.681 44.3862,77.9408 C44.196,77.1968 44.0242,76.4476 43.8922,75.691 C43.754,74.9358 43.6658,74.1714 43.6106,73.407 C43.6866,73.7836 43.7332,74.1632 43.8166,74.5372 L43.9224,75.101 L44.0432,75.6616 C44.2058,76.4082 44.375,77.1536 44.5794,77.8898 C44.7382,78.5208 45.2186,80.251 45.484,80.97 C45.508,81.0352 45.9046,82.2828 45.9046,82.2828 Z"/>
    <ellipse cx="49" cy="89" fill="#B4BFBE" rx="6.8" ry="1"/>
    <path fill="#B4BFBE" fill-rule="nonzero" d="M57.5972,64.5946 C58.3256,64.193 63.1662,61.9188 63.9118,61.5554 L64.2608,61.8656 C63.468,62.186 58.4082,64.3144 57.5972,64.5946 Z M64.2608,61.8656 L63.8726,62.0112 C63.6618,61.5462 62.0562,58.0786 61.8624,57.6048 C62.2262,58.1838 63.9224,61.2736 64.2608,61.8656 Z"/>
    <path fill="#00AFA6" d="M31.0122 8.3212C30.5388 7.8496 30.1736 7.4442 30.1538 6.7438 30.1368 6.1384 30.289 5.539 30.3 4.9334 30.307 4.5472 29.707 4.5472 29.7 4.9334 29.6858 5.7164 29.431 6.5308 29.6166 7.3082 29.759 7.9052 30.1658 8.325 30.5878 8.7456 30.8618 9.0184 31.2862 8.5944 31.0122 8.3212zM32.7774 18.8538C32.6982 19.0584 32.4098 19.2222 32.2378 19.3376 32.0246 19.4806 31.8014 19.6078 31.582 19.741 31.2522 19.941 31.5534 20.46 31.8848 20.259 32.4056 19.943 33.1224 19.617 33.356 19.013 33.4954 18.6528 32.9154 18.4968 32.7774 18.8538zM21.3316 16.2546C21.1054 16.5414 20.9406 16.9038 21.1286 17.255 21.3308 17.633 21.6328 17.5852 21.9674 17.6094 21.9344 17.92 21.7062 18.2474 21.6736 18.5474 21.6412 18.844 21.7174 19.0632 21.9212 19.2788 22.187 19.56 22.6108 19.1352 22.3456 18.8546 22.1208 18.6168 22.4306 18.1472 22.5018 17.9052 22.567 17.6838 22.5876 17.493 22.542 17.2674 22.5226 17.1714 22.4276 17.0782 22.3324 17.058 22.0596 16.9998 21.5628 17.124 21.7616 16.683 21.8764 16.4284 22.4486 15.9544 22.7212 16.2122 23.0018 16.4774 23.4268 16.0538 23.1456 15.788 22.537 15.2128 21.7682 15.7006 21.3316 16.2546zM68.859 8.9164C68.9016 8.9296 68.9444 8.9428 68.987 8.956 69.0484 8.975 69.1126 8.9692 69.1704 8.9466L69.201 8.9626C69.2306 8.983 69.2344 8.9858 69.2124 8.9708L69.2544 9.0122C69.3674 9.1286 69.5654 9.1254 69.6788 9.0122 69.7952 8.8958 69.792 8.7046 69.6788 8.588 69.4748 8.3776 69.1492 8.2414 68.859 8.3378 68.5788 8.4308 68.5698 8.8268 68.859 8.9164zM69.769 16.788C69.3974 16.9296 68.8494 17.204 68.3634 17.2902 68.7398 16.9006 69.3026 16.5166 69.6796 16.4228 70.0542 16.3294 69.8956 15.7506 69.5204 15.8442 69.0406 15.9636 68.705 16.2924 68.319 16.5816 67.9854 16.8312 67.7012 17.0464 67.512 17.428 67.4284 17.597 67.493 17.818 67.6912 17.8688 68.1728 17.992 68.7056 17.8424 69.2052 17.6538 69.0342 17.8338 68.8458 18.009 68.758 18.1622 68.5616 18.506 68.3508 18.9286 68.3666 19.3334 68.3818 19.7182 68.9818 19.7202 68.9666 19.3334 68.9288 18.3672 70.1646 17.9634 70.1486 17.0774 70.1456 16.8986 69.957 16.7164 69.769 16.788zM74.3 28L74.3 26.5334C74.3 26.1472 73.7 26.1466 73.7 26.5334L73.7 28C73.7 28.386 74.3 28.3868 74.3 28zM76.2666 32.9C76.081 32.9056 75.9074 32.9746 75.7878 33.1212 75.6856 33.2466 75.665 33.4228 75.7878 33.5456 75.8936 33.651 76.1092 33.6716 76.2122 33.5456L76.25 33.5024 76.251 33.5018 76.2552 33.5004 76.2666 33.5C76.4234 33.4952 76.574 33.3654 76.5666 33.2 76.5596 33.0416 76.4348 32.895 76.2666 32.9zM20.3584 37.3272C20.2958 37.1918 20.1902 37.078 20.024 37.001 19.8546 36.9228 19.6784 36.9174 19.4986 36.883 19.263 36.8376 19.042 36.772 18.8 36.7666 18.4136 36.7582 18.4138 37.3582 18.8 37.3666 19.0408 37.3718 19.2706 37.4526 19.5078 37.4886 19.6696 37.5134 19.8686 37.5046 19.8368 37.7168 19.7982 37.9728 20.1264 38.2722 20.338 38.0088 20.405 37.9254 20.4684 37.8418 20.5256 37.7514 20.6454 37.5626 20.5228 37.3832 20.3584 37.3272zM30.8544 30.3212L30.5878 30.5878C30.4734 30.7024 30.4734 30.8976 30.5878 31.0122 30.7028 31.127 30.8972 31.127 31.0122 31.0122 31.101 30.9232 31.19 30.8344 31.2788 30.7456 31.3934 30.6308 31.3934 30.4358 31.2788 30.3212 31.1638 30.2062 30.9694 30.2062 30.8544 30.3212zM84.187 7.7108C83.5352 7.9556 82.7788 8.3666 82.5628 9.0884 82.352 9.7932 83.0876 10.1608 83.6536 10.2894 84.0294 10.3748 84.19 9.7964 83.813 9.7108 83.6376 9.6708 83.4444 9.6282 83.2936 9.5246 83.0684 9.3702 83.1302 9.2228 83.2724 9.017 83.5264 8.6494 83.9396 8.442 84.3464 8.2894 84.7044 8.1548 84.5494 7.5746 84.187 7.7108zM85.7514 14.941C85.6184 14.8632 85.4136 14.9032 85.341 15.0488 85.2964 15.1376 85.2522 15.2264 85.2076 15.3154 85.1352 15.4602 85.1692 15.6404 85.3152 15.7258 85.4482 15.8036 85.653 15.7636 85.7258 15.6182 85.7702 15.5292 85.8146 15.4404 85.859 15.3514 85.9314 15.2066 85.8976 15.0266 85.7514 14.941zM83.2 32.9C82.8138 32.9 82.8132 33.5 83.2 33.5 83.5862 33.5 83.5868 32.9 83.2 32.9zM80.2442 45.387C80.1996 45.6368 80.1864 45.891 80.1506 46.142 80.1198 46.3602 80.0978 46.6974 79.9212 46.8544 79.632 47.1116 80.0576 47.5346 80.3456 47.2788 80.8004 46.8746 80.7258 46.0912 80.8226 45.5464 80.8898 45.1688 80.3118 45.0068 80.2442 45.387z"/>
    <polygon fill="#00AFA6" points="68.642 42.34 68.651 42.344 68.645 42.338 68.643 42.339"/>
    <path fill="#00AFA6" d="M68.974 42.4456C68.8824 42.4204 68.7898 42.386 68.6974 42.3654L68.6514 42.3438C68.6982 42.3906 68.512 42.3868 68.6422 42.3396 68.6252 42.3286 68.6088 42.3168 68.59 42.309 68.6172 42.3202 68.6342 42.3298 68.645 42.3382 68.728 42.307 68.8286 42.1926 68.91 42.1456 69.0092 42.0878 69.1126 42.0374 69.2182 41.9924 69.572 41.8414 69.2668 41.3244 68.9152 41.4744 68.5126 41.646 67.7546 42.0816 68.0822 42.6228 68.2188 42.8484 68.4868 42.9332 68.7256 43.0004 68.9444 43.062 69.202 43.06 69.1666 43.3334 69.1176 43.7152 69.718 43.7116 69.7666 43.3334 69.8352 42.8014 69.4198 42.5684 68.974 42.4456zM26.8544 52.1878C26.6924 52.3368 26.3324 52.2378 26.1334 52.2334 25.747 52.2246 25.7472 52.8246 26.1334 52.8334 26.5406 52.8424 26.9508 52.9136 27.2788 52.6122 27.5636 52.3502 27.1384 51.9268 26.8544 52.1878zM40.987 26.244C40.8282 26.2766 40.7366 26.4642 40.7774 26.613 40.82 26.768 40.9678 26.8418 41.1174 26.8236L41.127 26.8282 41.1186 26.8236 41.1194 26.8236 41.1424 26.8348C41.1954 26.8612 41.2282 26.8868 41.2674 26.92 41.354 26.993 41.4334 27.074 41.5212 27.1456 41.6468 27.2476 41.8226 27.2682 41.9456 27.1456 42.051 27.04 42.0718 26.824 41.9456 26.7212 41.6596 26.4886 41.3986 26.1594 40.987 26.244zM44.5362 4.603C44.5138 4.4688 44.3694 4.3902 44.247 4.3826 43.9692 4.3656 43.6666 4.5124 43.4486 4.6744 43.3188 4.7708 43.2528 4.934 43.341 5.0848 43.4158 5.2128 43.6206 5.2896 43.7514 5.1924 43.835 5.1304 43.927 5.0736 44.023 5.0326L44.0604 5.0196C44.1376 5.0862 44.2528 5.1152 44.3464 5.0894 44.516 5.0428 44.5828 4.8808 44.556 4.7204 44.5494 4.6812 44.5428 4.642 44.5362 4.603zM10.9332 7.8334C10.5576 7.8204 10.2134 7.9768 9.8344 7.9722 9.4068 7.967 8.9864 8.0002 8.5974 7.7934 8.3068 7.639 7.9744 8.0244 8.2338 8.2646 8.2628 8.2916 8.292 8.3186 8.3212 8.3456 8.394 8.413 8.476 8.4346 8.5532 8.4256 8.857 8.5358 9.161 8.5626 9.5042 8.5664 9.7528 8.569 10.0044 8.5896 10.2512 8.5554 10.4846 8.523 10.694 8.425 10.9332 8.4334 11.3194 8.4468 11.319 7.8468 10.9332 7.8334zM9.7152 27.6076C9.2402 27.9306 8.6126 28.1536 8.3772 28.7202 8.3146 28.871 8.445 29.0486 8.5868 29.0892 8.7586 29.1386 8.894 29.0286 8.9558 28.8798 9.0284 28.7048 9.286 28.5726 9.4362 28.4786 9.6284 28.3584 9.8304 28.2534 10.018 28.1256 10.3354 27.9098 10.0356 27.3896 9.7152 27.6076zM13.2796 49.1774C12.8856 49.1238 12.5446 48.8508 12.1332 48.9 11.9712 48.9194 11.835 49.024 11.8332 49.2 11.8318 49.3472 11.9724 49.5194 12.1332 49.5 12.476 49.459 12.7854 49.7104 13.1202 49.7558 13.282 49.778 13.4402 49.7168 13.4892 49.5464 13.5294 49.4068 13.44 49.1992 13.2796 49.1774zM74.8 57.4334C74.3618 57.492 74.1336 57.8266 73.8464 58.126 73.569 58.4154 73.3476 58.6932 73.2108 59.0564 72.8894 59.1626 73.0506 59.69 73.413 59.6226 73.4492 59.6158 73.4854 59.6092 73.5214 59.6026 73.6218 59.5838 73.7046 59.4872 73.731 59.393 73.8208 59.0706 73.9836 58.8448 74.2146 58.6068 74.3514 58.4658 74.595 58.0608 74.8 58.0334 75.1772 57.9828 75.182 57.382 74.8 57.4334zM76.2848 67.341C76.107 67.2522 75.9292 67.1632 75.7514 67.0742 75.6066 67.002 75.4266 67.0358 75.341 67.1818 75.263 67.3148 75.3032 67.5196 75.4486 67.5924 75.6264 67.6812 75.8042 67.7702 75.9818 67.859 76.1268 67.9314 76.3068 67.8976 76.3924 67.7514 76.4702 67.6184 76.4302 67.4136 76.2848 67.341zM83.741 55.7152C83.494 56.1322 83.1646 56.485 82.8544 56.8544 82.608 57.1484 83.0302 57.575 83.2788 57.2788 83.6212 56.8708 83.9862 56.4786 84.259 56.0182 84.4562 55.6852 83.9378 55.383 83.741 55.7152zM90.4544 29.7878C90.1394 30.1004 90.23 30.5354 90.2334 30.9334 90.2364 31.3192 90.8364 31.3202 90.8334 30.9334 90.8318 30.7406 90.7268 30.363 90.8788 30.2122 91.1534 29.9398 90.7292 29.5156 90.4544 29.7878zM12.8 66.1L11.6 66.1C11.2138 66.1 11.2132 66.7 11.6 66.7L12.8 66.7C13.186 66.7 13.1866 66.1 12.8 66.1zM21.7 65.2C21.7046 66.2326 21.899 67.3166 21.341 68.2486 21.142 68.5806 21.6606 68.8828 21.859 68.5514 22.4802 67.514 22.3052 66.3538 22.3 65.2 22.2982 64.814 21.6982 64.8132 21.7 65.2zM20.8 75.3C20.414 75.3 20.4132 75.9 20.8 75.9 21.186 75.9 21.1868 75.3 20.8 75.3z"/>
  </g>
</svg>
